<svg width="19.500000" height="19.500000" viewBox="0 0 19.5 19.5" fill="none" xmlns="http://www.w3.org/2000/svg" xmlns:xlink="http://www.w3.org/1999/xlink">
    <desc>
        Created with Pixso.
    </desc>
    <defs/>
    <path id="Vector" d="M9.75 0C7.82 0 5.93 0.57 4.33 1.64C2.72 2.71 1.48 4.23 0.74 6.01C0 7.8 -0.19 9.76 0.18 11.65C0.56 13.54 1.49 15.28 2.85 16.64C4.21 18 5.95 18.93 7.84 19.31C9.73 19.68 11.69 19.49 13.48 18.75C15.26 18.01 16.78 16.77 17.85 15.16C18.92 13.56 19.5 11.67 19.5 9.75C19.49 7.16 18.46 4.68 16.64 2.85C14.81 1.03 12.33 0 9.75 0ZM9.75 18C8.11 18 6.52 17.51 5.16 16.6C3.8 15.7 2.75 14.41 2.12 12.9C1.5 11.39 1.34 9.74 1.65 8.14C1.97 6.54 2.76 5.07 3.91 3.91C5.07 2.76 6.54 1.97 8.14 1.65C9.74 1.34 11.39 1.5 12.9 2.12C14.41 2.75 15.7 3.8 16.6 5.16C17.51 6.52 18 8.11 18 9.75C17.99 11.93 17.12 14.03 15.58 15.58C14.03 17.12 11.93 17.99 9.75 18ZM9 10.5L9 5.25C9 5.05 9.07 4.86 9.21 4.71C9.36 4.57 9.55 4.5 9.75 4.5C9.94 4.5 10.13 4.57 10.28 4.71C10.42 4.86 10.5 5.05 10.5 5.25L10.5 10.5C10.5 10.69 10.42 10.88 10.28 11.03C10.13 11.17 9.94 11.25 9.75 11.25C9.55 11.25 9.36 11.17 9.21 11.03C9.07 10.88 9 10.69 9 10.5ZM10.87 13.87C10.87 14.09 10.8 14.31 10.68 14.5C10.56 14.68 10.38 14.82 10.18 14.91C9.97 14.99 9.74 15.02 9.53 14.97C9.31 14.93 9.11 14.82 8.95 14.67C8.79 14.51 8.68 14.31 8.64 14.09C8.6 13.87 8.62 13.65 8.71 13.44C8.79 13.23 8.93 13.06 9.12 12.93C9.31 12.81 9.52 12.75 9.75 12.75C10.04 12.75 10.33 12.86 10.54 13.07C10.75 13.29 10.87 13.57 10.87 13.87Z" fill="#FFFFFF" fill-opacity="0.300000" fill-rule="nonzero"/>
</svg>
