<svg width="22" height="18" viewBox="0 0 22 18" fill="none" xmlns="http://www.w3.org/2000/svg">
<path d="M21.2806 7.97021L13.7806 0.47021C13.6757 0.365258 13.5421 0.293751 13.3967 0.264734C13.2512 0.235716 13.1004 0.250491 12.9633 0.307189C12.8262 0.363887 12.709 0.459962 12.6265 0.583263C12.5441 0.706565 12.5 0.851555 12.4999 0.999897V4.78271C10.0681 4.99083 7.38213 6.18146 5.17244 8.05552C2.51182 10.313 0.855255 13.2221 0.507443 16.2465C0.480263 16.4816 0.527938 16.7193 0.643684 16.9258C0.75943 17.1322 0.937349 17.2969 1.15212 17.3964C1.36689 17.4959 1.60757 17.5251 1.83991 17.4799C2.07225 17.4347 2.28441 17.3174 2.44619 17.1446C3.47744 16.0468 7.14682 12.5752 12.4999 12.2696V15.9999C12.5 16.1482 12.5441 16.2932 12.6265 16.4165C12.709 16.5398 12.8262 16.6359 12.9633 16.6926C13.1004 16.7493 13.2512 16.7641 13.3967 16.7351C13.5421 16.706 13.6757 16.6345 13.7806 16.5296L21.2806 9.02958C21.4208 8.88899 21.4996 8.69849 21.4996 8.4999C21.4996 8.3013 21.4208 8.11081 21.2806 7.97021ZM13.9999 14.1896V11.4999C13.9999 11.301 13.9209 11.1102 13.7803 10.9696C13.6396 10.8289 13.4489 10.7499 13.2499 10.7499C10.6174 10.7499 8.05338 11.4371 5.629 12.7936C4.39427 13.4876 3.24383 14.3219 2.20057 15.2799C2.74432 13.0449 4.11494 10.9196 6.14276 9.19927C8.31963 7.35333 10.9765 6.2499 13.2499 6.2499C13.4489 6.2499 13.6396 6.17088 13.7803 6.03023C13.9209 5.88957 13.9999 5.69881 13.9999 5.4999V2.81115L19.6896 8.4999L13.9999 14.1896Z" fill="#BABABA"/>
</svg>
