<svg width="18.666687" height="26.666626" viewBox="0 0 18.6667 26.6666" fill="none" xmlns="http://www.w3.org/2000/svg" xmlns:xlink="http://www.w3.org/1999/xlink">
	<desc>
			Created with Pixso.
	</desc>
	<defs/>
	<path id="Union" d="M16 0L2.66 0C1.19 0 0 1.19 0 2.66L0 24C0 25.47 1.19 26.66 2.66 26.66L16 26.66C17.47 26.66 18.66 25.47 18.66 24L18.66 2.66C18.66 1.19 17.47 0 16 0ZM2.66 24L2.66 2.66L16 2.66L16 24L2.66 24ZM9.33 22.66C10.06 22.66 10.66 22.06 10.66 21.33C10.66 20.59 10.06 20 9.33 20C8.59 20 8 20.59 8 21.33C8 22.06 8.59 22.66 9.33 22.66Z" fill="#B4FD64" fill-opacity="1.000000" fill-rule="evenodd"/>
</svg>
