<svg width="15.733887" height="14.160522" viewBox="0 0 15.7339 14.1605" fill="none" xmlns="http://www.w3.org/2000/svg" xmlns:xlink="http://www.w3.org/1999/xlink">
    <desc>
        Created with Pixso.
    </desc>
    <defs/>
    <path id="Vector" d="M1.57 0L14.16 0C15.02 0 15.73 0.7 15.73 1.57L15.73 12.58C15.73 13.45 15.02 14.16 14.16 14.16L1.57 14.16C0.7 14.16 0 13.45 0 12.58L0 1.57C0 0.7 0.7 0 1.57 0ZM1.93 1.57L1.57 1.57L1.57 4.72L4.03 4.72L1.93 1.57ZM3.83 1.57L5.92 4.72L7.97 4.72L5.87 1.57L3.83 1.57ZM7.76 1.57L9.86 4.72L11.9 4.72L9.8 1.57L7.76 1.57ZM13.79 4.72L14.16 4.72L14.16 1.57L11.69 1.57L13.79 4.72ZM1.57 6.29L1.57 12.58L14.16 12.58L14.16 6.29L1.57 6.29ZM10.62 9.44L6.29 11.8L6.29 7.08L10.62 9.44Z" fill="#FFFFFF" fill-opacity="1.000000" fill-rule="evenodd"/>
</svg>
