<svg width="14.160645" height="15.734558" viewBox="0 0 14.1606 15.7346" fill="none" xmlns="http://www.w3.org/2000/svg" xmlns:xlink="http://www.w3.org/1999/xlink">
    <desc>
        Created with Pixso.
    </desc>
    <defs/>
    <path id="Vector" d="M1.57 15.73L12.58 15.73C13 15.73 13.4 15.56 13.69 15.27C13.99 14.97 14.16 14.57 14.16 14.16L14.16 7.08C14.16 6.97 14.14 6.87 14.1 6.77C14.06 6.68 14 6.59 13.93 6.52L7.63 0.22C7.49 0.08 7.29 0 7.08 0C6.87 0 6.67 0.08 6.52 0.22L0.23 6.52C0.16 6.59 0.1 6.68 0.06 6.77C0.02 6.87 0 6.97 0 7.08L0 14.16C0 14.57 0.16 14.97 0.46 15.27C0.75 15.56 1.15 15.73 1.57 15.73ZM5.5 14.16L5.5 10.22L8.65 10.22L8.65 14.16L5.5 14.16ZM1.57 7.4L7.08 1.89L12.58 7.4L12.58 14.16L10.22 14.16L10.22 10.22C10.22 9.81 10.06 9.41 9.76 9.11C9.47 8.82 9.07 8.65 8.65 8.65L5.5 8.65C5.08 8.65 4.68 8.82 4.39 9.11C4.09 9.41 3.93 9.81 3.93 10.22L3.93 14.16L1.57 14.16L1.57 7.4Z" fill="#FFFFFF" fill-opacity="1.000000" fill-rule="nonzero"/>
</svg>
