<svg width="14.160645" height="14.160522" viewBox="0 0 14.1606 14.1605" fill="none" xmlns="http://www.w3.org/2000/svg" xmlns:xlink="http://www.w3.org/1999/xlink">
    <desc>
        Created with Pixso.
    </desc>
    <defs/>
    <path id="Vector" d="M12.58 0L1.57 0C0.7 0 0 0.7 0 1.57L0 12.58C0 13.45 0.7 14.16 1.57 14.16L12.58 14.16C13.45 14.16 14.16 13.45 14.16 12.58L14.16 1.57C14.16 0.7 13.45 0 12.58 0ZM4.72 6.29L4.72 1.57L9.44 1.57L9.44 6.29L4.72 6.29ZM9.44 7.86L9.44 12.58L4.72 12.58L4.72 7.86L9.44 7.86ZM1.57 1.57L3.14 1.57L3.14 3.14L1.57 3.14L1.57 1.57ZM1.57 4.72L3.14 4.72L3.14 6.29L1.57 6.29L1.57 4.72ZM1.57 7.86L3.14 7.86L3.14 9.44L1.57 9.44L1.57 7.86ZM1.57 11.01L3.14 11.01L3.14 12.58L1.57 12.58L1.57 11.01ZM12.58 12.58L11.01 12.58L11.01 11.01L12.58 11.01L12.58 12.58ZM12.58 9.44L11.01 9.44L11.01 7.86L12.58 7.86L12.58 9.44ZM12.58 6.29L11.01 6.29L11.01 4.72L12.58 4.72L12.58 6.29ZM11.01 3.14L11.01 1.57L12.58 1.57L12.58 3.14L11.01 3.14Z" fill="#FFFFFF" fill-opacity="1.000000" fill-rule="nonzero"/>
</svg>
