<svg width="31.000000" height="31.000000" viewBox="0 0 31 31" fill="none" xmlns="http://www.w3.org/2000/svg" xmlns:xlink="http://www.w3.org/1999/xlink">
    <defs/>
    <path id="Vector" d="M15.5 0C6.93 0 0 6.93 0 15.5C0 24.06 6.93 31 15.5 31C24.06 31 31 24.06 31 15.5C31 6.93 24.06 0 15.5 0ZM23.11 10.61L20.56 22.6C20.38 23.45 19.87 23.66 19.16 23.26L15.29 20.4L13.42 22.2C13.21 22.41 13.04 22.58 12.64 22.58L12.91 18.64L20.1 12.15C20.41 11.88 20.03 11.72 19.61 12L10.74 17.58L6.91 16.39C6.08 16.13 6.06 15.56 7.09 15.16L22.03 9.39C22.73 9.14 23.33 9.56 23.11 10.61L23.11 10.61Z" fill="#FFFFFF" fill-opacity="0.300000" fill-rule="nonzero"/>
</svg>
