<svg width="31.000000" height="31.000000" viewBox="0 0 31 31" fill="none" xmlns="http://www.w3.org/2000/svg" xmlns:xlink="http://www.w3.org/1999/xlink">
    <defs>
        <clipPath id="clip7_3723">
            <rect id="Box Icons" rx="-0.500000" width="20.000000" height="20.000000" transform="translate(5.500000 5.500000)" fill="white" fill-opacity="0"/>
        </clipPath>
    </defs>
    <path id="Exclude" d="M15.5 0C6.9397 0 0 6.93958 0 15.5C0 24.0604 6.9397 31 15.5 31C24.0603 31 31 24.0604 31 15.5C31 6.93958 24.0603 0 15.5 0ZM19.885 10.4675C19.2869 9.78467 18.9573 8.90778 18.9575 8L16.2537 8L16.2537 18.85C16.2329 19.4371 15.9851 19.9933 15.5623 20.4013C15.1396 20.8093 14.575 21.0374 13.9875 21.0375C12.7449 21.0375 11.7124 20.0225 11.7124 18.7625C11.7124 17.2575 13.165 16.1287 14.6611 16.5925L14.6611 13.8275C11.6426 13.425 9 15.77 9 18.7625C9 21.6763 11.415 23.75 13.9788 23.75C16.7263 23.75 18.9575 21.5187 18.9575 18.7625L18.9575 13.2587C20.054 14.0461 21.3701 14.4686 22.72 14.4662L22.72 11.7625C22.72 11.7625 21.075 11.8412 19.885 10.4675Z" clip-rule="evenodd" fill="#FFFFFF" fill-opacity="0.300000" fill-rule="evenodd"/>
</svg>
