<svg width="15.733887" height="14.632568" viewBox="0 0 15.7339 14.6326" fill="none" xmlns="http://www.w3.org/2000/svg" xmlns:xlink="http://www.w3.org/1999/xlink">
    <desc>
        Created with Pixso.
    </desc>
    <defs/>
    <path id="Vector" d="M1.57 14.63L14.16 14.63C15.02 14.63 15.73 13.92 15.73 13.05L15.73 4.4C15.73 3.53 15.02 2.83 14.16 2.83L11.01 2.83L12.42 0.94L11.17 0L9.04 2.83L6.68 2.83L4.56 0L3.3 0.94L4.72 2.83L1.57 2.83C0.7 2.83 0 3.53 0 4.4L0 13.05C0 13.92 0.7 14.63 1.57 14.63ZM14.16 4.4L14.16 13.05L1.57 13.05L1.57 4.4L14.16 4.4Z" fill="#FFFFFF" fill-opacity="1.000000" fill-rule="nonzero"/>
</svg>
