<svg width="30.719971" height="30.719971" viewBox="0 0 30.72 30.72" fill="none" xmlns="http://www.w3.org/2000/svg" xmlns:xlink="http://www.w3.org/1999/xlink">
    <desc>
        Created with Pixso.
    </desc>
    <defs/>
    <path id="Vector" d="M15.36 0C6.87 0 0 6.87 0 15.36C0 23.84 6.87 30.72 15.36 30.72C23.84 30.72 30.72 23.84 30.72 15.36C30.72 6.87 23.84 0 15.36 0ZM21.26 17.32C21.26 17.32 22.62 18.67 22.96 19.29C22.96 19.3 22.97 19.31 22.97 19.32C23.11 19.55 23.14 19.73 23.07 19.86C22.96 20.08 22.58 20.19 22.45 20.2L20.05 20.2C19.88 20.2 19.53 20.16 19.11 19.86C18.78 19.64 18.46 19.26 18.15 18.9C17.69 18.36 17.28 17.89 16.88 17.89C16.83 17.89 16.77 17.9 16.72 17.92C16.42 18.02 16.02 18.45 16.02 19.62C16.02 19.99 15.74 20.2 15.53 20.2L14.43 20.2C14.06 20.2 12.11 20.07 10.38 18.24C8.27 16.01 6.36 11.53 6.35 11.49C6.23 11.2 6.47 11.05 6.74 11.05L9.17 11.05C9.49 11.05 9.6 11.24 9.67 11.42C9.76 11.62 10.07 12.43 10.59 13.34C11.44 14.82 11.95 15.42 12.37 15.42C12.45 15.42 12.52 15.4 12.59 15.36C13.13 15.06 13.03 13.14 13.01 12.74C13.01 12.66 13 11.87 12.73 11.5C12.53 11.22 12.19 11.12 11.99 11.08C12.07 10.97 12.18 10.87 12.31 10.81C12.68 10.62 13.35 10.6 14.01 10.6L14.38 10.6C15.1 10.61 15.28 10.65 15.55 10.72C16.07 10.84 16.08 11.19 16.04 12.35C16.02 12.68 16.01 13.06 16.01 13.5C16.01 13.6 16 13.7 16 13.81C15.99 14.4 15.97 15.07 16.39 15.35C16.44 15.38 16.51 15.4 16.57 15.4C16.72 15.4 17.15 15.4 18.34 13.37C18.71 12.71 19.03 12.03 19.29 11.33C19.32 11.29 19.39 11.16 19.47 11.11C19.53 11.08 19.6 11.06 19.67 11.06L22.52 11.06C22.83 11.06 23.04 11.11 23.08 11.23C23.15 11.42 23.07 12 21.77 13.76L21.19 14.53C20.01 16.07 20.01 16.15 21.26 17.32Z" fill="#FFFFFF" fill-opacity="0.300000" fill-rule="nonzero"/>
</svg>
