<svg width="30.719971" height="30.719971" viewBox="0 0 30.72 30.72" fill="none" xmlns="http://www.w3.org/2000/svg" xmlns:xlink="http://www.w3.org/1999/xlink">
    <defs/>
    <path id="Vector" d="M17.92 15.09L14.33 13.41C14.01 13.27 13.76 13.43 13.76 13.78L13.76 16.93C13.76 17.28 14.01 17.44 14.33 17.3L17.92 15.62C18.23 15.48 18.23 15.24 17.92 15.09ZM15.36 0C6.87 0 0 6.87 0 15.36C0 23.84 6.87 30.72 15.36 30.72C23.84 30.72 30.72 23.84 30.72 15.36C30.72 6.87 23.84 0 15.36 0ZM15.36 21.6C7.49 21.6 7.36 20.89 7.36 15.36C7.36 9.82 7.49 9.12 15.36 9.12C23.22 9.12 23.36 9.82 23.36 15.36C23.36 20.89 23.22 21.6 15.36 21.6Z" fill="#FFFFFF" fill-opacity="0.300000" fill-rule="nonzero"/>
</svg>
