<svg width="18.707031" height="18.708008" viewBox="0 0 18.707 18.708" fill="none" xmlns="http://www.w3.org/2000/svg" xmlns:xlink="http://www.w3.org/1999/xlink">
	<defs/>
	<path id="Vector" d="M8 16C9.77 15.99 11.49 15.4 12.89 14.31L17.29 18.7L18.7 17.29L14.31 12.89C15.4 11.49 15.99 9.77 16 8C16 3.58 12.41 0 8 0C3.58 0 0 3.58 0 8C0 12.41 3.58 16 8 16ZM8 2C11.3 2 14 4.69 14 8C14 11.3 11.3 14 8 14C4.69 14 2 11.3 2 8C2 4.69 4.69 2 8 2Z" fill="#BABABA" fill-opacity="1.000000" fill-rule="nonzero"/>
</svg>
