<svg width="23.986938" height="24.050049" viewBox="0 0 23.9869 24.05" fill="none" xmlns="http://www.w3.org/2000/svg" xmlns:xlink="http://www.w3.org/1999/xlink">
	<defs>
		<clipPath id="clip2_3536">
			<rect id="Name=promo code, Size=Small" rx="-0.500000" width="22.986938" height="23.050095" transform="translate(0.500000 0.500000)" fill="white" fill-opacity="0"/>
		</clipPath>
	</defs>
	<rect id="Name=promo code, Size=Small" rx="-0.500000" width="22.986938" height="23.050095" transform="translate(0.500000 0.500000)" fill="#FFFFFF" fill-opacity="0"/>
	<g clip-path="url(#clip2_3536)">
		<path id="Vector" d="M20.78 12C20.78 11.46 21.02 10.96 21.43 10.58C21.84 10.21 22.4 10 22.98 10L22.98 6C22.98 5.46 22.75 4.96 22.34 4.58C21.93 4.21 21.37 4 20.78 4L3.19 4C2.61 4 2.05 4.21 1.64 4.58C1.23 4.96 0.99 5.46 0.99 6L0.99 10C1.58 10 2.14 10.21 2.55 10.58C2.96 10.96 3.19 11.46 3.19 12C3.19 12.53 2.96 13.03 2.55 13.41C2.14 13.78 1.58 14 0.99 14L0.99 18C0.99 18.53 1.23 19.03 1.64 19.41C2.05 19.78 2.61 20 3.19 20L20.78 20C21.37 20 21.93 19.78 22.34 19.41C22.75 19.03 22.98 18.53 22.98 18L22.98 14C22.4 14 21.84 13.78 21.43 13.41C21.02 13.03 20.78 12.53 20.78 12ZM21.48 15.2Q21.13 15.05 20.82 14.83Q20.61 14.69 20.42 14.52Q20.08 14.22 19.84 13.85Q19.7 13.63 19.59 13.38Q19.42 13.02 19.35 12.64Q19.28 12.32 19.28 12Q19.28 11.67 19.35 11.35Q19.42 10.97 19.59 10.61Q19.7 10.36 19.84 10.14Q20.08 9.78 20.42 9.47Q20.61 9.3 20.82 9.16Q21.13 8.94 21.48 8.8L21.48 6Q21.48 5.97 21.48 5.94Q21.46 5.81 21.33 5.69Q21.23 5.6 21.1 5.55Q21.06 5.54 21.03 5.53Q20.91 5.5 20.78 5.5L3.19 5.5Q3.07 5.5 2.95 5.53Q2.92 5.54 2.88 5.55Q2.74 5.6 2.65 5.69Q2.52 5.81 2.5 5.94Q2.49 5.97 2.49 6L2.49 8.8Q2.85 8.94 3.16 9.16Q3.37 9.3 3.56 9.47Q3.89 9.78 4.13 10.14Q4.28 10.36 4.39 10.61Q4.56 10.97 4.63 11.35Q4.69 11.67 4.69 12Q4.69 12.32 4.63 12.64Q4.56 13.02 4.39 13.38Q4.28 13.63 4.13 13.85Q3.89 14.22 3.56 14.52Q3.37 14.69 3.16 14.83Q2.85 15.05 2.49 15.2L2.49 18Q2.49 18.02 2.5 18.05Q2.52 18.18 2.65 18.3Q2.74 18.39 2.88 18.44Q2.92 18.45 2.95 18.46Q3.07 18.5 3.19 18.5L20.78 18.5Q20.91 18.5 21.03 18.46Q21.06 18.45 21.1 18.44Q21.23 18.39 21.33 18.3Q21.46 18.18 21.48 18.05Q21.48 18.02 21.48 18L21.48 15.2Z" fill="#FFFFFF" fill-opacity="1.000000" fill-rule="evenodd"/>
		<path id="Star 1" d="M12 8L10.81 10.37L8.19 10.76L10.09 12.62L9.64 15.23L12 14L14.35 15.23L13.9 12.62L15.8 10.76L13.18 10.37L12 8Z" fill="#FFFFFF" fill-opacity="1.000000" fill-rule="evenodd"/>
	</g>
</svg>
