<svg width="76.000000" height="18.000000" viewBox="0 0 76 18" fill="none" xmlns="http://www.w3.org/2000/svg" xmlns:xlink="http://www.w3.org/1999/xlink">
	<desc>
	</desc>
	<defs/>
	<path id="Text" d="M63.26 2.91L67.86 2.91L67.86 0L63.26 0L63.26 2.91ZM68.76 2.91L73.35 2.91L73.35 0L68.76 0L68.76 2.91ZM48.87 3.49C57.86 3.49 59.02 7.79 59.02 10.42L59.02 10.99C59.02 13.6 57.88 18 48.87 18L48.02 18C39 18 37.85 13.6 37.85 10.99L37.85 10.42C37.85 7.79 39 3.49 48.02 3.49L48.87 3.49ZM0 3.75L0 7.57L6.01 7.57L6.01 17.73L11.33 17.73L11.33 7.57L17.34 7.57L17.34 3.75L0 3.75ZM17.87 3.75L24.91 17.73L31.97 17.73L38.51 3.75L32.98 3.75L28.58 13.51L23.9 3.75L17.87 3.75ZM75.84 7.17L75.84 3.75L60.43 3.75L60.43 17.73L76 17.73L76 14.24L65.67 14.24L65.67 12.32L75.64 12.32L75.64 8.92L65.67 8.92L65.67 7.17L75.84 7.17ZM53.51 10.55C53.51 9.07 52.56 7.24 48.44 7.24C44.32 7.24 43.36 9.07 43.36 10.55L43.36 10.78C43.36 12.24 44.32 14.22 48.44 14.22C52.56 14.22 53.51 12.32 53.51 10.81L53.51 10.55Z" fill="#FFFFFF" fill-opacity="1.000000" fill-rule="evenodd"/>
</svg>
